<svg xmlns="http://www.w3.org/2000/svg" width="720" height="1464" viewBox="0 0 720 1464" role="img" aria-labelledby="t d"><title id="t">Actual Battle Dinghy Game 151</title><desc id="d">Three-player Battle Dinghy fleet battle board based on the supplied public game capture.</desc><defs>
<radialGradient id="boom" cx="50%" cy="50%" r="50%"><stop offset="0" stop-color="#fff"/><stop offset=".16" stop-color="#fff7bd"/><stop offset=".36" stop-color="#ff9e2f"/><stop offset=".62" stop-color="#ff432a"/><stop offset="1" stop-color="#9b1718" stop-opacity="0"/></radialGradient>
<linearGradient id="water" x1="0" y1="0" x2="1" y2="1"><stop stop-color="#17345d"/><stop offset="1" stop-color="#0d2344"/></linearGradient>
<filter id="glow"><feGaussianBlur stdDeviation="8" result="b"/><feMerge><feMergeNode in="b"/><feMergeNode in="SourceGraphic"/></feMerge></filter>
<g id="explosion"><circle r="29" fill="url(#boom)" filter="url(#glow)"/><g stroke="#ffbf38" stroke-width="3" stroke-linecap="round"><path d="M0-39V-31M28-28L22-22M39 0H31M28 28L22 22M0 39V31M-28 28L-22 22M-39 0H-31M-28-28L-22-22"/></g></g>
</defs><rect width="720" height="1464" fill="#000"/><rect width="720" height="88" fill="#000" stroke="#2f3336"/><circle cx="48" cy="45" r="30" fill="#07182b" stroke="#183b61"/><text x="48" y="51" fill="#fff" font-family="Arial" font-size="13" font-weight="900" text-anchor="middle">BD</text><text x="92" y="35" fill="#f0f2f4" font-family="Arial" font-size="21" font-weight="800">Battle Dinghy</text><text x="242" y="35" fill="#71767b" font-family="Arial" font-size="16">@Battle_Dinghy · May 11</text><text x="92" y="62" fill="#71767b" font-family="Arial" font-size="15">Replying to </text><text x="174" y="62" fill="#1d9bf0" font-family="Arial" font-size="15">@IGORtheArbiter @ThreadBookie and @thread_play</text><text x="92" y="118" fill="#e7e9ea" font-family="Arial" font-size="20">15/ </text><text x="128" y="118" fill="#1d9bf0" font-family="Arial" font-size="20">@IGORtheArbiter</text><text x="292" y="118" fill="#e7e9ea" font-family="Arial" font-size="20"> SUNK </text><text x="360" y="118" fill="#1d9bf0" font-family="Arial" font-size="20">@thread_play</text><text x="487" y="118" fill="#e7e9ea" font-family="Arial" font-size="20">'s Big Dinghy!</text><text x="92" y="168" fill="#1d9bf0" font-family="Arial" font-size="20">@thread_play</text><text x="220" y="168" fill="#e7e9ea" font-family="Arial" font-size="20">'s turn!</text><text x="92" y="222" fill="#e7e9ea" font-family="Arial" font-size="22">Game #151</text><rect x="92" y="255" width="570" height="1030" rx="22" fill="#081426" stroke="#273f5e"/><text x="120" y="300" fill="#67d6ff" font-family="monospace" font-size="11" font-weight="800" letter-spacing="5">BATTLE DINGHY // FULL FLEET BATTLE MODE</text><text x="120" y="335" fill="#f2f4f7" font-family="Arial" font-size="24" font-weight="900">Fleet Battle · 3 Players</text><text x="120" y="360" fill="#71839d" font-family="monospace" font-size="10" font-weight="700" letter-spacing="5">SHARED GRID · FRATRICIDE ENABLED · 5×5</text><rect x="120" y="390" width="514" height="56" fill="#17355e"/><rect x="120" y="390" width="5" height="56" fill="#5fd5ff"/><text x="142" y="412" fill="#75ddff" font-family="monospace" font-size="10" font-weight="800" letter-spacing="5">NOW FIRING</text><text x="142" y="437" fill="#fff" font-family="Arial" font-size="19" font-weight="900">@thread_play</text><text x="209.0" y="484" fill="#68d2ff" font-family="monospace" font-size="11" font-weight="800" text-anchor="middle">01</text><text x="287.0" y="484" fill="#68d2ff" font-family="monospace" font-size="11" font-weight="800" text-anchor="middle">02</text><text x="365.0" y="484" fill="#68d2ff" font-family="monospace" font-size="11" font-weight="800" text-anchor="middle">03</text><text x="443.0" y="484" fill="#68d2ff" font-family="monospace" font-size="11" font-weight="800" text-anchor="middle">04</text><text x="521.0" y="484" fill="#68d2ff" font-family="monospace" font-size="11" font-weight="800" text-anchor="middle">05</text><text x="142" y="543.0" fill="#68d2ff" font-family="monospace" font-size="11" font-weight="800" text-anchor="middle">A</text><text x="142" y="621.0" fill="#68d2ff" font-family="monospace" font-size="11" font-weight="800" text-anchor="middle">B</text><text x="142" y="699.0" fill="#68d2ff" font-family="monospace" font-size="11" font-weight="800" text-anchor="middle">C</text><text x="142" y="777.0" fill="#68d2ff" font-family="monospace" font-size="11" font-weight="800" text-anchor="middle">D</text><text x="142" y="855.0" fill="#68d2ff" font-family="monospace" font-size="11" font-weight="800" text-anchor="middle">E</text><rect x="170" y="500" width="78" height="78" fill="url(#water)" stroke="#28618a" stroke-width="2"/><use href="#explosion" transform="translate(209.0 539.0)"/><rect x="174" y="504" width="28" height="19" fill="#64aaff"/><text x="188" y="518" fill="#06101b" font-family="monospace" font-size="9" font-weight="900" text-anchor="middle">P2</text><rect x="248" y="500" width="78" height="78" fill="url(#water)" stroke="#28618a" stroke-width="2"/><rect x="326" y="500" width="78" height="78" fill="url(#water)" stroke="#28618a" stroke-width="2"/><circle cx="365.0" cy="539.0" r="14" fill="#79d43f"/><rect x="404" y="500" width="78" height="78" fill="url(#water)" stroke="#28618a" stroke-width="2"/><rect x="482" y="500" width="78" height="78" fill="url(#water)" stroke="#28618a" stroke-width="2"/><use href="#explosion" transform="translate(521.0 539.0)"/><rect x="486" y="504" width="28" height="19" fill="#68dc81"/><text x="500" y="518" fill="#06101b" font-family="monospace" font-size="9" font-weight="900" text-anchor="middle">P3</text><rect x="170" y="578" width="78" height="78" fill="url(#water)" stroke="#28618a" stroke-width="2"/><use href="#explosion" transform="translate(209.0 617.0)"/><rect x="174" y="582" width="28" height="19" fill="#64aaff"/><text x="188" y="596" fill="#06101b" font-family="monospace" font-size="9" font-weight="900" text-anchor="middle">P2</text><rect x="248" y="578" width="78" height="78" fill="url(#water)" stroke="#28618a" stroke-width="2"/><rect x="326" y="578" width="78" height="78" fill="url(#water)" stroke="#28618a" stroke-width="2"/><circle cx="365.0" cy="617.0" r="14" fill="#79d43f"/><rect x="404" y="578" width="78" height="78" fill="url(#water)" stroke="#28618a" stroke-width="2"/><rect x="482" y="578" width="78" height="78" fill="url(#water)" stroke="#28618a" stroke-width="2"/><use href="#explosion" transform="translate(521.0 617.0)"/><rect x="486" y="582" width="28" height="19" fill="#68dc81"/><text x="500" y="596" fill="#06101b" font-family="monospace" font-size="9" font-weight="900" text-anchor="middle">P3</text><rect x="170" y="656" width="78" height="78" fill="url(#water)" stroke="#28618a" stroke-width="2"/><use href="#explosion" transform="translate(209.0 695.0)"/><rect x="174" y="660" width="28" height="19" fill="#64aaff"/><text x="188" y="674" fill="#06101b" font-family="monospace" font-size="9" font-weight="900" text-anchor="middle">P2</text><rect x="248" y="656" width="78" height="78" fill="url(#water)" stroke="#28618a" stroke-width="2"/><rect x="326" y="656" width="78" height="78" fill="url(#water)" stroke="#28618a" stroke-width="2"/><use href="#explosion" transform="translate(365.0 695.0)"/><rect x="330" y="660" width="28" height="19" fill="#68dc81"/><text x="344" y="674" fill="#06101b" font-family="monospace" font-size="9" font-weight="900" text-anchor="middle">P3</text><rect x="404" y="656" width="78" height="78" fill="url(#water)" stroke="#28618a" stroke-width="2"/><use href="#explosion" transform="translate(443.0 695.0)"/><rect x="408" y="660" width="28" height="19" fill="#68dc81"/><text x="422" y="674" fill="#06101b" font-family="monospace" font-size="9" font-weight="900" text-anchor="middle">P3</text><rect x="482" y="656" width="78" height="78" fill="url(#water)" stroke="#28618a" stroke-width="2"/><use href="#explosion" transform="translate(521.0 695.0)"/><rect x="486" y="660" width="28" height="19" fill="#68dc81"/><text x="500" y="674" fill="#06101b" font-family="monospace" font-size="9" font-weight="900" text-anchor="middle">P3</text><rect x="484" y="658" width="74" height="74" fill="none" stroke="#ffba3b" stroke-width="3"/><rect x="170" y="734" width="78" height="78" fill="url(#water)" stroke="#28618a" stroke-width="2"/><rect x="248" y="734" width="78" height="78" fill="url(#water)" stroke="#28618a" stroke-width="2"/><rect x="326" y="734" width="78" height="78" fill="url(#water)" stroke="#28618a" stroke-width="2"/><use href="#explosion" transform="translate(365.0 773.0)"/><rect x="330" y="738" width="28" height="19" fill="#ff704e"/><text x="344" y="752" fill="#06101b" font-family="monospace" font-size="9" font-weight="900" text-anchor="middle">P1</text><rect x="404" y="734" width="78" height="78" fill="url(#water)" stroke="#28618a" stroke-width="2"/><rect x="482" y="734" width="78" height="78" fill="url(#water)" stroke="#28618a" stroke-width="2"/><rect x="170" y="812" width="78" height="78" fill="url(#water)" stroke="#28618a" stroke-width="2"/><use href="#explosion" transform="translate(209.0 851.0)"/><rect x="174" y="816" width="28" height="19" fill="#64aaff"/><text x="188" y="830" fill="#06101b" font-family="monospace" font-size="9" font-weight="900" text-anchor="middle">P2</text><rect x="248" y="812" width="78" height="78" fill="url(#water)" stroke="#28618a" stroke-width="2"/><rect x="326" y="812" width="78" height="78" fill="url(#water)" stroke="#28618a" stroke-width="2"/><circle cx="365.0" cy="851.0" r="14" fill="#79d43f"/><rect x="404" y="812" width="78" height="78" fill="url(#water)" stroke="#28618a" stroke-width="2"/><rect x="482" y="812" width="78" height="78" fill="url(#water)" stroke="#28618a" stroke-width="2"/><circle cx="521.0" cy="851.0" r="14" fill="#79d43f"/><rect x="120" y="918" width="514" height="185" fill="#0a1a31" stroke="#203e5e"/><text x="140" y="948" fill="#67d6ff" font-family="monospace" font-size="10" font-weight="800" letter-spacing="5">FLEET STATUS</text><rect x="140" y="966" width="16" height="16" fill="#64aaff" stroke="#fff"/><text x="166" y="980" fill="#64aaff" font-family="Arial" font-size="13" font-weight="900">P2</text><text x="205" y="980" fill="#d9e0e8" font-family="Arial" font-size="13" font-weight="800">@IGORtheArbiter</text><text x="400" y="980" fill="#8fa0b7" font-family="monospace" font-size="10" font-weight="700">BIG ✕✕✕   MID ◩□   LIL □</text><rect x="140" y="1006" width="16" height="16" fill="#ff704e" stroke="#fff"/><text x="166" y="1020" fill="#ff704e" font-family="Arial" font-size="13" font-weight="900">P1</text><text x="205" y="1020" fill="#d9e0e8" font-family="Arial" font-size="13" font-weight="800">@ThreadBookie</text><text x="400" y="1020" fill="#8fa0b7" font-family="monospace" font-size="10" font-weight="700">BIG □□□   MID □□   LIL ✕</text><rect x="140" y="1046" width="16" height="16" fill="#68dc81" stroke="#fff"/><text x="166" y="1060" fill="#68dc81" font-family="Arial" font-size="13" font-weight="900">P3</text><text x="205" y="1060" fill="#d9e0e8" font-family="Arial" font-size="13" font-weight="800">@thread_play</text><text x="400" y="1060" fill="#8fa0b7" font-family="monospace" font-size="10" font-weight="700">BIG ✕✕✕   MID ✕✕   LIL □</text><text x="377" y="1255" fill="#58677d" font-family="monospace" font-size="9" font-weight="700" text-anchor="middle" letter-spacing="5">@BATTLE_DINGHY · 2026</text><text x="92" y="1355" fill="#71767b" font-family="Arial" font-size="18">○ 1                ↻                ♡                ▥ 6                ⌑</text><line x1="0" y1="1392" x2="720" y2="1392" stroke="#2f3336"/><text x="360" y="1435" fill="#71767b" font-family="monospace" font-size="10" font-weight="700" text-anchor="middle">ACTUAL GAME #151 · RECREATED FROM THE PUBLIC CAPTURE</text></svg>