<svg xmlns="http://www.w3.org/2000/svg" width="720" height="1464" viewBox="0 0 720 1464"><rect width="720" height="1464" fill="#000"/><rect x="0" y="0" width="720" height="74" fill="#000" stroke="#2f3336"/><text x="28" y="46" font-family="Arial,Helvetica,sans-serif" font-size="28" font-weight="500" fill="#e7e9ea" text-anchor="start" opacity="1">←</text><text x="78" y="40" font-family="Arial,Helvetica,sans-serif" font-size="22" font-weight="800" fill="#e7e9ea" text-anchor="start" opacity="1">The Straits</text><text x="78" y="61" font-family="Arial,Helvetica,sans-serif" font-size="11" font-weight="700" fill="#71767b" text-anchor="start" opacity="1">10-PLAYER ORE TIMELINE</text><rect x="0" y="74" width="720" height="34" fill="#07121d"/><text x="360" y="96" font-family="Arial,Helvetica,sans-serif" font-size="11" font-weight="800" fill="#1d9bf0" text-anchor="middle" opacity="1">LIVE SIMULATOR TRANSCRIPT</text><g><circle cx="50" cy="151" r="29" fill="#168cff"/><text x="50" y="157" font-family="Arial,Helvetica,sans-serif" font-size="14" font-weight="800" fill="#fff" text-anchor="middle" opacity="1">JF</text><text x="92" y="139" font-family="Arial,Helvetica,sans-serif" font-size="19" font-weight="800" fill="#f2f2f2" text-anchor="start" opacity="1">Justin Fagan</text><text x="218.0" y="139" font-family="Arial,Helvetica,sans-serif" font-size="16" font-weight="400" fill="#71767b" text-anchor="start" opacity="1">@thejustinfagan · now</text><text x="92" y="169" font-family="Arial,Helvetica,sans-serif" font-size="18" font-weight="400" fill="#e7e9ea" text-anchor="start" opacity="1">@the_straits open Hormuz. Ten commanders. ORE</text><text x="92" y="196" font-family="Arial,Helvetica,sans-serif" font-size="18" font-weight="400" fill="#e7e9ea" text-anchor="start" opacity="1">timeline rules.</text><text x="92" y="259" font-family="Arial,Helvetica,sans-serif" font-size="18" font-weight="400" fill="#71767b" text-anchor="start" opacity="1">○      ↻      ♡      ▥      ↗</text><line x1="0" y1="283" x2="720" y2="283" stroke="#2f3336"/></g><g><circle cx="50" cy="326" r="29" fill="#ef4444"/><text x="50" y="332" font-family="Arial,Helvetica,sans-serif" font-size="14" font-weight="800" fill="#fff" text-anchor="middle" opacity="1">ST</text><text x="92" y="314" font-family="Arial,Helvetica,sans-serif" font-size="19" font-weight="800" fill="#f2f2f2" text-anchor="start" opacity="1">The Straits</text><text x="207.5" y="314" font-family="Arial,Helvetica,sans-serif" font-size="16" font-weight="400" fill="#71767b" text-anchor="start" opacity="1">@the_straits · now</text><text x="92" y="341" font-family="Arial,Helvetica,sans-serif" font-size="14" font-weight="400" fill="#71767b" text-anchor="start" opacity="1">Replying to @thejustinfagan</text><text x="92" y="361" font-family="Arial,Helvetica,sans-serif" font-size="18" font-weight="400" fill="#e7e9ea" text-anchor="start" opacity="1">The channel is live. Fleets assigned. Public orders</text><text x="92" y="388" font-family="Arial,Helvetica,sans-serif" font-size="18" font-weight="400" fill="#e7e9ea" text-anchor="start" opacity="1">may begin.</text><text x="92" y="439" font-family="Arial,Helvetica,sans-serif" font-size="18" font-weight="400" fill="#71767b" text-anchor="start" opacity="1">○      ↻      ♡      ▥      ↗</text><line x1="0" y1="463" x2="720" y2="463" stroke="#2f3336"/></g><rect x="92" y="500" width="570" height="520" rx="24" fill="#07131c" stroke="#2f3336"/><text x="120" y="543" font-family="Arial,Helvetica,sans-serif" font-size="13" font-weight="900" fill="#ef4444" text-anchor="start" opacity="1">STRAIT OF HORMUZ</text><text x="630" y="543" font-family="Arial,Helvetica,sans-serif" font-size="12" font-weight="800" fill="#8b98a5" text-anchor="end" opacity="1">ROUND 04</text><path d="M125 640 C250 560 360 620 470 575 C555 540 620 570 650 610 L650 930 C550 870 450 900 350 850 C260 805 190 875 125 820Z" fill="#153f66" stroke="#2d6e9e" stroke-width="3"/><path d="M160 700 L202 700 L193 714 L168 714Z" fill="#168cff"/><text x="180" y="686" font-family="Arial,Helvetica,sans-serif" font-size="11" font-weight="900" fill="#fff" text-anchor="middle" opacity="1">01</text><path d="M260 755 L302 755 L293 769 L268 769Z" fill="#ff4b68"/><text x="280" y="741" font-family="Arial,Helvetica,sans-serif" font-size="11" font-weight="900" fill="#fff" text-anchor="middle" opacity="1">02</text><path d="M370 685 L412 685 L403 699 L378 699Z" fill="#b7ff3c"/><text x="390" y="671" font-family="Arial,Helvetica,sans-serif" font-size="11" font-weight="900" fill="#fff" text-anchor="middle" opacity="1">03</text><path d="M480 780 L522 780 L513 794 L488 794Z" fill="#ffb11b"/><text x="500" y="766" font-family="Arial,Helvetica,sans-serif" font-size="11" font-weight="900" fill="#fff" text-anchor="middle" opacity="1">04</text><path d="M555 660 L597 660 L588 674 L563 674Z" fill="#c084fc"/><text x="575" y="646" font-family="Arial,Helvetica,sans-serif" font-size="11" font-weight="900" fill="#fff" text-anchor="middle" opacity="1">05</text><path d="M320 870 L362 870 L353 884 L328 884Z" fill="#22d3ee"/><text x="340" y="856" font-family="Arial,Helvetica,sans-serif" font-size="11" font-weight="900" fill="#fff" text-anchor="middle" opacity="1">06</text><path d="M280 745 Q380 640 500 770" fill="none" stroke="#fff" stroke-dasharray="8 8" stroke-width="3"/><text x="120" y="972" font-family="Arial,Helvetica,sans-serif" font-size="11" font-weight="800" fill="#8b98a5" text-anchor="start" opacity="1">ACTIVE FLEETS 10</text><text x="630" y="972" font-family="Arial,Helvetica,sans-serif" font-size="11" font-weight="800" fill="#ef4444" text-anchor="end" opacity="1">CONTROL: CONTESTED</text><g><circle cx="50" cy="1093" r="29" fill="#ef4444"/><text x="50" y="1099" font-family="Arial,Helvetica,sans-serif" font-size="14" font-weight="800" fill="#fff" text-anchor="middle" opacity="1">ST</text><text x="92" y="1081" font-family="Arial,Helvetica,sans-serif" font-size="19" font-weight="800" fill="#f2f2f2" text-anchor="start" opacity="1">The Straits</text><text x="207.5" y="1081" font-family="Arial,Helvetica,sans-serif" font-size="16" font-weight="400" fill="#71767b" text-anchor="start" opacity="1">@the_straits · 3m</text><text x="92" y="1111" font-family="Arial,Helvetica,sans-serif" font-size="18" font-weight="400" fill="#e7e9ea" text-anchor="start" opacity="1">Fleet 02 enters the shipping lane. Fleet 04</text><text x="92" y="1138" font-family="Arial,Helvetica,sans-serif" font-size="18" font-weight="400" fill="#e7e9ea" text-anchor="start" opacity="1">challenges control.</text><text x="92" y="1201" font-family="Arial,Helvetica,sans-serif" font-size="18" font-weight="400" fill="#71767b" text-anchor="start" opacity="1">○      ↻      ♡      ▥      ↗</text><line x1="0" y1="1225" x2="720" y2="1225" stroke="#2f3336"/></g><g><circle cx="50" cy="1268" r="29" fill="#168cff"/><text x="50" y="1274" font-family="Arial,Helvetica,sans-serif" font-size="14" font-weight="800" fill="#fff" text-anchor="middle" opacity="1">JF</text><text x="92" y="1256" font-family="Arial,Helvetica,sans-serif" font-size="19" font-weight="800" fill="#f2f2f2" text-anchor="start" opacity="1">Justin Fagan</text><text x="218.0" y="1256" font-family="Arial,Helvetica,sans-serif" font-size="16" font-weight="400" fill="#71767b" text-anchor="start" opacity="1">@thejustinfagan · now</text><text x="92" y="1286" font-family="Arial,Helvetica,sans-serif" font-size="18" font-weight="400" fill="#e7e9ea" text-anchor="start" opacity="1">hold position 01</text><text x="92" y="1341" font-family="Arial,Helvetica,sans-serif" font-size="18" font-weight="400" fill="#71767b" text-anchor="start" opacity="1">○      ↻      ♡      ▥      ↗</text><line x1="0" y1="1365" x2="720" y2="1365" stroke="#2f3336"/></g><text x="360" y="1430" font-family="Arial,Helvetica,sans-serif" font-size="11" font-weight="700" fill="#71767b" text-anchor="middle" opacity="1">THREADPLAY SIMULATOR · SOURCE-FAITHFUL CAPTURE</text></svg>