<svg xmlns="http://www.w3.org/2000/svg" width="720" height="1464" viewBox="0 0 720 1464"><rect width="720" height="1464" fill="#000"/><rect x="0" y="0" width="720" height="74" fill="#000" stroke="#2f3336"/><text x="28" y="46" font-family="Arial,Helvetica,sans-serif" font-size="28" font-weight="500" fill="#e7e9ea" text-anchor="start" opacity="1">←</text><text x="78" y="40" font-family="Arial,Helvetica,sans-serif" font-size="22" font-weight="800" fill="#e7e9ea" text-anchor="start" opacity="1">ThreadChess</text><text x="78" y="61" font-family="Arial,Helvetica,sans-serif" font-size="11" font-weight="700" fill="#71767b" text-anchor="start" opacity="1">CHESS960 · GAME #93</text><rect x="0" y="74" width="720" height="34" fill="#07121d"/><text x="360" y="96" font-family="Arial,Helvetica,sans-serif" font-size="11" font-weight="800" fill="#1d9bf0" text-anchor="middle" opacity="1">LIVE SIMULATOR TRANSCRIPT</text><g><circle cx="50" cy="151" r="29" fill="#168cff"/><text x="50" y="157" font-family="Arial,Helvetica,sans-serif" font-size="14" font-weight="800" fill="#fff" text-anchor="middle" opacity="1">JF</text><text x="92" y="139" font-family="Arial,Helvetica,sans-serif" font-size="19" font-weight="800" fill="#f2f2f2" text-anchor="start" opacity="1">Justin Fagan</text><text x="218.0" y="139" font-family="Arial,Helvetica,sans-serif" font-size="16" font-weight="400" fill="#71767b" text-anchor="start" opacity="1">@thejustinfagan · now</text><text x="92" y="169" font-family="Arial,Helvetica,sans-serif" font-size="18" font-weight="400" fill="#e7e9ea" text-anchor="start" opacity="1">@threadchess challenge @chief_of_yolo chess960.</text><text x="92" y="254" font-family="Arial,Helvetica,sans-serif" font-size="18" font-weight="400" fill="#71767b" text-anchor="start" opacity="1">○      ↻      ♡      ▥      ↗</text><line x1="0" y1="278" x2="720" y2="278" stroke="#2f3336"/></g><g><circle cx="50" cy="321" r="29" fill="#7c4dff"/><text x="50" y="327" font-family="Arial,Helvetica,sans-serif" font-size="14" font-weight="800" fill="#fff" text-anchor="middle" opacity="1">TC</text><text x="92" y="309" font-family="Arial,Helvetica,sans-serif" font-size="19" font-weight="800" fill="#f2f2f2" text-anchor="start" opacity="1">ThreadChess</text><text x="207.5" y="309" font-family="Arial,Helvetica,sans-serif" font-size="16" font-weight="400" fill="#71767b" text-anchor="start" opacity="1">@threadchess · now</text><text x="92" y="336" font-family="Arial,Helvetica,sans-serif" font-size="14" font-weight="400" fill="#71767b" text-anchor="start" opacity="1">Replying to @thejustinfagan</text><text x="92" y="356" font-family="Arial,Helvetica,sans-serif" font-size="18" font-weight="400" fill="#e7e9ea" text-anchor="start" opacity="1">Game created. White to move. Reply with a move in</text><text x="92" y="383" font-family="Arial,Helvetica,sans-serif" font-size="18" font-weight="400" fill="#e7e9ea" text-anchor="start" opacity="1">coordinate notation.</text><text x="92" y="444" font-family="Arial,Helvetica,sans-serif" font-size="18" font-weight="400" fill="#71767b" text-anchor="start" opacity="1">○      ↻      ♡      ▥      ↗</text><line x1="0" y1="468" x2="720" y2="468" stroke="#2f3336"/></g><rect x="92" y="500" width="570" height="570" rx="20" fill="#11151b" stroke="#2f3336"/><rect x="113" y="520" width="66" height="66" fill="#cfd7df"/><text x="146" y="565" font-family="Arial,Helvetica,sans-serif" font-size="28" font-weight="900" fill="#fff" text-anchor="middle" opacity="1">R</text><rect x="179" y="520" width="66" height="66" fill="#4a5968"/><text x="212" y="565" font-family="Arial,Helvetica,sans-serif" font-size="28" font-weight="900" fill="#fff" text-anchor="middle" opacity="1">N</text><rect x="245" y="520" width="66" height="66" fill="#cfd7df"/><text x="278" y="565" font-family="Arial,Helvetica,sans-serif" font-size="28" font-weight="900" fill="#fff" text-anchor="middle" opacity="1">Q</text><rect x="311" y="520" width="66" height="66" fill="#4a5968"/><text x="344" y="565" font-family="Arial,Helvetica,sans-serif" font-size="28" font-weight="900" fill="#fff" text-anchor="middle" opacity="1">B</text><rect x="377" y="520" width="66" height="66" fill="#cfd7df"/><text x="410" y="565" font-family="Arial,Helvetica,sans-serif" font-size="28" font-weight="900" fill="#fff" text-anchor="middle" opacity="1">K</text><rect x="443" y="520" width="66" height="66" fill="#4a5968"/><text x="476" y="565" font-family="Arial,Helvetica,sans-serif" font-size="28" font-weight="900" fill="#fff" text-anchor="middle" opacity="1">R</text><rect x="509" y="520" width="66" height="66" fill="#cfd7df"/><text x="542" y="565" font-family="Arial,Helvetica,sans-serif" font-size="28" font-weight="900" fill="#fff" text-anchor="middle" opacity="1">B</text><rect x="575" y="520" width="66" height="66" fill="#4a5968"/><text x="608" y="565" font-family="Arial,Helvetica,sans-serif" font-size="28" font-weight="900" fill="#fff" text-anchor="middle" opacity="1">N</text><rect x="113" y="586" width="66" height="66" fill="#4a5968"/><text x="146" y="631" font-family="Arial,Helvetica,sans-serif" font-size="28" font-weight="900" fill="#fff" text-anchor="middle" opacity="1">P</text><rect x="179" y="586" width="66" height="66" fill="#cfd7df"/><text x="212" y="631" font-family="Arial,Helvetica,sans-serif" font-size="28" font-weight="900" fill="#fff" text-anchor="middle" opacity="1">P</text><rect x="245" y="586" width="66" height="66" fill="#4a5968"/><text x="278" y="631" font-family="Arial,Helvetica,sans-serif" font-size="28" font-weight="900" fill="#fff" text-anchor="middle" opacity="1">P</text><rect x="311" y="586" width="66" height="66" fill="#cfd7df"/><text x="344" y="631" font-family="Arial,Helvetica,sans-serif" font-size="28" font-weight="900" fill="#fff" text-anchor="middle" opacity="1">P</text><rect x="377" y="586" width="66" height="66" fill="#4a5968"/><text x="410" y="631" font-family="Arial,Helvetica,sans-serif" font-size="28" font-weight="900" fill="#fff" text-anchor="middle" opacity="1">P</text><rect x="443" y="586" width="66" height="66" fill="#cfd7df"/><text x="476" y="631" font-family="Arial,Helvetica,sans-serif" font-size="28" font-weight="900" fill="#fff" text-anchor="middle" opacity="1">P</text><rect x="509" y="586" width="66" height="66" fill="#4a5968"/><text x="542" y="631" font-family="Arial,Helvetica,sans-serif" font-size="28" font-weight="900" fill="#fff" text-anchor="middle" opacity="1">P</text><rect x="575" y="586" width="66" height="66" fill="#cfd7df"/><text x="608" y="631" font-family="Arial,Helvetica,sans-serif" font-size="28" font-weight="900" fill="#fff" text-anchor="middle" opacity="1">P</text><rect x="113" y="652" width="66" height="66" fill="#cfd7df"/><rect x="179" y="652" width="66" height="66" fill="#4a5968"/><rect x="245" y="652" width="66" height="66" fill="#cfd7df"/><rect x="311" y="652" width="66" height="66" fill="#4a5968"/><rect x="377" y="652" width="66" height="66" fill="#cfd7df"/><rect x="443" y="652" width="66" height="66" fill="#4a5968"/><rect x="509" y="652" width="66" height="66" fill="#cfd7df"/><rect x="575" y="652" width="66" height="66" fill="#4a5968"/><rect x="113" y="718" width="66" height="66" fill="#4a5968"/><rect x="179" y="718" width="66" height="66" fill="#cfd7df"/><rect x="245" y="718" width="66" height="66" fill="#4a5968"/><rect x="311" y="718" width="66" height="66" fill="#cfd7df"/><rect x="377" y="718" width="66" height="66" fill="#4a5968"/><rect x="443" y="718" width="66" height="66" fill="#cfd7df"/><rect x="509" y="718" width="66" height="66" fill="#4a5968"/><rect x="575" y="718" width="66" height="66" fill="#cfd7df"/><rect x="113" y="784" width="66" height="66" fill="#cfd7df"/><rect x="179" y="784" width="66" height="66" fill="#4a5968"/><rect x="245" y="784" width="66" height="66" fill="#cfd7df"/><rect x="311" y="784" width="66" height="66" fill="#4a5968"/><rect x="377" y="784" width="66" height="66" fill="#cfd7df"/><rect x="443" y="784" width="66" height="66" fill="#4a5968"/><rect x="509" y="784" width="66" height="66" fill="#cfd7df"/><rect x="575" y="784" width="66" height="66" fill="#4a5968"/><rect x="113" y="850" width="66" height="66" fill="#4a5968"/><rect x="179" y="850" width="66" height="66" fill="#cfd7df"/><rect x="245" y="850" width="66" height="66" fill="#4a5968"/><rect x="311" y="850" width="66" height="66" fill="#cfd7df"/><rect x="377" y="850" width="66" height="66" fill="#4a5968"/><rect x="443" y="850" width="66" height="66" fill="#cfd7df"/><rect x="509" y="850" width="66" height="66" fill="#4a5968"/><rect x="575" y="850" width="66" height="66" fill="#cfd7df"/><rect x="113" y="916" width="66" height="66" fill="#cfd7df"/><text x="146" y="961" font-family="Arial,Helvetica,sans-serif" font-size="28" font-weight="900" fill="#0a0b0d" text-anchor="middle" opacity="1">P</text><rect x="179" y="916" width="66" height="66" fill="#4a5968"/><text x="212" y="961" font-family="Arial,Helvetica,sans-serif" font-size="28" font-weight="900" fill="#0a0b0d" text-anchor="middle" opacity="1">P</text><rect x="245" y="916" width="66" height="66" fill="#cfd7df"/><text x="278" y="961" font-family="Arial,Helvetica,sans-serif" font-size="28" font-weight="900" fill="#0a0b0d" text-anchor="middle" opacity="1">P</text><rect x="311" y="916" width="66" height="66" fill="#4a5968"/><text x="344" y="961" font-family="Arial,Helvetica,sans-serif" font-size="28" font-weight="900" fill="#0a0b0d" text-anchor="middle" opacity="1">P</text><rect x="377" y="916" width="66" height="66" fill="#cfd7df"/><text x="410" y="961" font-family="Arial,Helvetica,sans-serif" font-size="28" font-weight="900" fill="#0a0b0d" text-anchor="middle" opacity="1">P</text><rect x="443" y="916" width="66" height="66" fill="#4a5968"/><text x="476" y="961" font-family="Arial,Helvetica,sans-serif" font-size="28" font-weight="900" fill="#0a0b0d" text-anchor="middle" opacity="1">P</text><rect x="509" y="916" width="66" height="66" fill="#cfd7df"/><text x="542" y="961" font-family="Arial,Helvetica,sans-serif" font-size="28" font-weight="900" fill="#0a0b0d" text-anchor="middle" opacity="1">P</text><rect x="575" y="916" width="66" height="66" fill="#4a5968"/><text x="608" y="961" font-family="Arial,Helvetica,sans-serif" font-size="28" font-weight="900" fill="#0a0b0d" text-anchor="middle" opacity="1">P</text><rect x="113" y="982" width="66" height="66" fill="#4a5968"/><text x="146" y="1027" font-family="Arial,Helvetica,sans-serif" font-size="28" font-weight="900" fill="#0a0b0d" text-anchor="middle" opacity="1">R</text><rect x="179" y="982" width="66" height="66" fill="#cfd7df"/><text x="212" y="1027" font-family="Arial,Helvetica,sans-serif" font-size="28" font-weight="900" fill="#0a0b0d" text-anchor="middle" opacity="1">N</text><rect x="245" y="982" width="66" height="66" fill="#4a5968"/><text x="278" y="1027" font-family="Arial,Helvetica,sans-serif" font-size="28" font-weight="900" fill="#0a0b0d" text-anchor="middle" opacity="1">Q</text><rect x="311" y="982" width="66" height="66" fill="#cfd7df"/><text x="344" y="1027" font-family="Arial,Helvetica,sans-serif" font-size="28" font-weight="900" fill="#0a0b0d" text-anchor="middle" opacity="1">B</text><rect x="377" y="982" width="66" height="66" fill="#4a5968"/><text x="410" y="1027" font-family="Arial,Helvetica,sans-serif" font-size="28" font-weight="900" fill="#0a0b0d" text-anchor="middle" opacity="1">K</text><rect x="443" y="982" width="66" height="66" fill="#cfd7df"/><text x="476" y="1027" font-family="Arial,Helvetica,sans-serif" font-size="28" font-weight="900" fill="#0a0b0d" text-anchor="middle" opacity="1">R</text><rect x="509" y="982" width="66" height="66" fill="#4a5968"/><text x="542" y="1027" font-family="Arial,Helvetica,sans-serif" font-size="28" font-weight="900" fill="#0a0b0d" text-anchor="middle" opacity="1">B</text><rect x="575" y="982" width="66" height="66" fill="#cfd7df"/><text x="608" y="1027" font-family="Arial,Helvetica,sans-serif" font-size="28" font-weight="900" fill="#0a0b0d" text-anchor="middle" opacity="1">N</text><text x="112" y="1088" font-family="Arial,Helvetica,sans-serif" font-size="12" font-weight="800" fill="#8b98a5" text-anchor="start" opacity="1">POSITION AFTER 6...Bb4+</text><text x="640" y="1088" font-family="Arial,Helvetica,sans-serif" font-size="12" font-weight="800" fill="#1d9bf0" text-anchor="end" opacity="1">WHITE TO MOVE</text><g><circle cx="50" cy="1163" r="29" fill="#168cff"/><text x="50" y="1169" font-family="Arial,Helvetica,sans-serif" font-size="14" font-weight="800" fill="#fff" text-anchor="middle" opacity="1">JF</text><text x="92" y="1151" font-family="Arial,Helvetica,sans-serif" font-size="19" font-weight="800" fill="#f2f2f2" text-anchor="start" opacity="1">Justin Fagan</text><text x="218.0" y="1151" font-family="Arial,Helvetica,sans-serif" font-size="16" font-weight="400" fill="#71767b" text-anchor="start" opacity="1">@thejustinfagan · 12m</text><text x="92" y="1181" font-family="Arial,Helvetica,sans-serif" font-size="18" font-weight="400" fill="#e7e9ea" text-anchor="start" opacity="1">e2e4</text><text x="92" y="1226" font-family="Arial,Helvetica,sans-serif" font-size="18" font-weight="400" fill="#71767b" text-anchor="start" opacity="1">○      ↻      ♡      ▥      ↗</text><line x1="0" y1="1250" x2="720" y2="1250" stroke="#2f3336"/></g><g><circle cx="50" cy="1293" r="29" fill="#7c4dff"/><text x="50" y="1299" font-family="Arial,Helvetica,sans-serif" font-size="14" font-weight="800" fill="#fff" text-anchor="middle" opacity="1">TC</text><text x="92" y="1281" font-family="Arial,Helvetica,sans-serif" font-size="19" font-weight="800" fill="#f2f2f2" text-anchor="start" opacity="1">ThreadChess</text><text x="207.5" y="1281" font-family="Arial,Helvetica,sans-serif" font-size="16" font-weight="400" fill="#71767b" text-anchor="start" opacity="1">@threadchess · 12m</text><text x="92" y="1311" font-family="Arial,Helvetica,sans-serif" font-size="18" font-weight="400" fill="#e7e9ea" text-anchor="start" opacity="1">Move accepted. Board updated. @chief_of_yolo to</text><text x="92" y="1338" font-family="Arial,Helvetica,sans-serif" font-size="18" font-weight="400" fill="#e7e9ea" text-anchor="start" opacity="1">move.</text><text x="92" y="1376" font-family="Arial,Helvetica,sans-serif" font-size="18" font-weight="400" fill="#71767b" text-anchor="start" opacity="1">○      ↻      ♡      ▥      ↗</text><line x1="0" y1="1400" x2="720" y2="1400" stroke="#2f3336"/></g><text x="360" y="1430" font-family="Arial,Helvetica,sans-serif" font-size="11" font-weight="700" fill="#71767b" text-anchor="middle" opacity="1">THREADPLAY SIMULATOR · SOURCE-FAITHFUL CAPTURE</text></svg>