<svg xmlns="http://www.w3.org/2000/svg" viewBox="0 0 1600 700" preserveAspectRatio="xMidYMid slice"><rect width="1600" height="700" fill="#f7f7f4"/><g fill="none" stroke-linecap="round"><path d="M-120 520C210 250 430 680 770 390S1280 210 1710 410" stroke="#070809" stroke-width="78"/><path d="M-110 470C220 200 450 620 780 340S1280 170 1700 360" stroke="#1e2023" stroke-width="24"/><path d="M-100 580C250 300 470 720 820 440S1300 260 1710 470" stroke="#45484c" stroke-width="9"/><path d="M-120 250C180 30 420 420 720 180S1240 20 1700 220" stroke="#0b0c0e" stroke-width="22"/><path d="M-130 205C170 0 430 360 730 130S1240 -20 1710 180" stroke="#2a2c30" stroke-width="8"/><path d="M-80 610C240 350 490 760 850 470S1320 300 1700 510" stroke="#aeb1b5" stroke-width="3"/></g></svg>