<svg xmlns="http://www.w3.org/2000/svg" viewBox="0 0 1200 630"><rect width="1200" height="630" fill="#f7f7f4"/><g fill="none" stroke-linecap="round"><path d="M-80 500C180 290 370 650 660 410S1010 260 1280 430" stroke="#090a0b" stroke-width="58"/><path d="M-50 460C220 250 390 610 690 370S1030 220 1270 390" stroke="#2b2d30" stroke-width="16"/><path d="M-70 170C180 0 390 300 650 120S1040 20 1270 160" stroke="#0d0e10" stroke-width="15"/></g><g transform="translate(810 105) scale(.68)"><rect x="115" y="76" width="282" height="360" rx="56" fill="#141619"/><ellipse cx="256" cy="78" rx="178" ry="48" fill="#070809"/><rect x="68" y="42" width="376" height="68" rx="30" fill="#0a0b0c"/><ellipse cx="256" cy="434" rx="188" ry="52" fill="#070809"/><rect x="62" y="408" width="388" height="64" rx="26" fill="#0a0b0c"/><path d="M158 180h147M235 180v180M235 210h82c61 0 90 27 90 71 0 47-30 76-91 76h-81" fill="none" stroke="#fff" stroke-width="36"/></g><text x="80" y="190" font-family="Arial,Helvetica,sans-serif" font-size="34" font-weight="700" letter-spacing="8">THREADPLAY</text><text x="80" y="285" font-family="Arial,Helvetica,sans-serif" font-size="74" font-weight="800">Play lives</text><text x="80" y="365" font-family="Arial,Helvetica,sans-serif" font-size="74" font-weight="800">in the thread.</text><text x="82" y="430" font-family="Arial,Helvetica,sans-serif" font-size="24" fill="#606368">Passive. Complementary. Frictionless.</text></svg>