<svg xmlns="http://www.w3.org/2000/svg" viewBox="0 0 1600 700" preserveAspectRatio="xMidYMid slice"><defs><linearGradient id="b" x1="0" x2="1"><stop stop-color="#168cff" stop-opacity="0"/><stop offset=".45" stop-color="#168cff"/><stop offset=".7" stop-color="#5fe8ff"/><stop offset="1" stop-color="#168cff" stop-opacity="0"/></linearGradient><filter id="g"><feGaussianBlur stdDeviation="8" result="x"/><feMerge><feMergeNode in="x"/><feMergeNode in="SourceGraphic"/></feMerge></filter></defs><rect width="1600" height="700" fill="#f7f7f4"/><g fill="none" stroke-linecap="round"><path d="M-120 520C210 250 430 680 770 390S1280 210 1710 410" stroke="#070809" stroke-width="78"/><path d="M-110 470C220 200 450 620 780 340S1280 170 1700 360" stroke="#1e2023" stroke-width="24"/><path d="M-100 580C250 300 470 720 820 440S1300 260 1710 470" stroke="#45484c" stroke-width="9"/><path d="M-120 250C180 30 420 420 720 180S1240 20 1700 220" stroke="#0b0c0e" stroke-width="22"/><path d="M-130 205C170 0 430 360 730 130S1240 -20 1710 180" stroke="#2a2c30" stroke-width="8"/><path d="M-80 610C240 350 490 760 850 470S1320 300 1700 510" stroke="#aeb1b5" stroke-width="3"/><path d="M-90 638C260 370 500 770 870 500S1320 325 1710 530" stroke="url(#b)" stroke-width="7" filter="url(#g)"/><path d="M380 300C650 115 800 460 1080 250S1420 135 1650 240" stroke="url(#b)" stroke-width="3.5" filter="url(#g)" opacity=".8"/></g></svg>
