<svg xmlns="http://www.w3.org/2000/svg" viewBox="0 0 512 512" role="img" aria-labelledby="title desc"><title id="title">ThreadPlay spool mark</title><desc id="desc">A black thread spool with a white TP monogram.</desc><defs><linearGradient id="body" x1="0" x2="1"><stop offset="0" stop-color="#050607"/><stop offset=".48" stop-color="#232528"/><stop offset="1" stop-color="#060708"/></linearGradient><linearGradient id="cap" x1="0" y1="0" x2="0" y2="1"><stop stop-color="#242629"/><stop offset=".55" stop-color="#070809"/><stop offset="1" stop-color="#151719"/></linearGradient><clipPath id="clip"><rect x="115" y="76" width="282" height="360" rx="56"/></clipPath></defs><rect width="512" height="512" fill="#fff"/><rect x="115" y="76" width="282" height="360" rx="56" fill="url(#body)"/><g clip-path="url(#clip)" fill="none" stroke="#8f9296" stroke-width="10" opacity=".18"><path d="M20 126 486 378M10 178 475 430M0 228 455 474M52 70 500 312M8 306 356 496"/></g><ellipse cx="256" cy="78" rx="178" ry="48" fill="#070809"/><rect x="68" y="42" width="376" height="68" rx="30" fill="url(#cap)"/><ellipse cx="256" cy="434" rx="188" ry="52" fill="#070809"/><rect x="62" y="408" width="388" height="64" rx="26" fill="url(#cap)"/><path d="M158 180h147M235 180v180M235 210h82c61 0 90 27 90 71 0 47-30 76-91 76h-81" fill="none" stroke="#fff" stroke-linecap="square" stroke-linejoin="round" stroke-width="36"/></svg>